PathFileType	4	(X/Y/Z)	/Users/visionmauri/1_6_1_f_Sports2D/1_6_1_f_Sports2D_px_person00.trc
DataRate	CameraRate	NumFrames	NumMarkers	Units	OrigDataRate	OrigDataStartFrame	OrigNumFrames
30.0	30.0	8	22	m	30.0	391	447
Frame#	Time	Hip			RHip			RKnee			RAnkle			RBigToe			RSmallToe			RHeel			LHip			LKnee			LAnkle			LBigToe			LSmallToe			LHeel			Neck			Head			Nose			RShoulder			RElbow			RWrist			LShoulder			LElbow			LWrist			
		X1	Y1	Z1	X2	Y2	Z2	X3	Y3	Z3	X4	Y4	Z4	X5	Y5	Z5	X6	Y6	Z6	X7	Y7	Z7	X8	Y8	Z8	X9	Y9	Z9	X10	Y10	Z10	X11	Y11	Z11	X12	Y12	Z12	X13	Y13	Z13	X14	Y14	Z14	X15	Y15	Z15	X16	Y16	Z16	X17	Y17	Z17	X18	Y18	Z18	X19	Y19	Z19	X20	Y20	Z20	X21	Y21	Z21	X22	Y22	Z22
391	13.062556053811658	555.4489970610254	885.7012733020655	0.0	478.0953657217206	905.1889433801039	0.0	465.3976749862754	1179.294139002076	0.0	480.1644440091959	1444.3239801269008	0.0	487.3076358229899	1568.5466356065135	0.0	441.7107516658576	1555.4213027051962	0.0	493.62206911884783	1477.1532440092872	0.0	631.0372463583692	909.0971467936051	0.0	618.2959296616943	1157.5693083981303	0.0	585.211570479364	1420.1788023795357	0.0	576.157953215696	1533.831863642065	0.0	613.8874330248432	1525.407043704202	0.0	572.5803077954728	1451.214571639233	0.0	584.000974723052	472.41044665888546	0.0	592.4986727357021	306.3169309945815	0.0	586.1553070610015	446.80292257757077	0.0	445.67377688257085	518.1732369161133	0.0	386.83518756307836	691.2829023675281	0.0	332.28099610486896	842.9768997111837	0.0	721.1973721340743	526.3828877657216	0.0	765.6215278263101	722.3881423228007	0.0	777.870345418937	758.9124512536472	0.0
392	13.095964125560537	555.2774545830381	887.8418146553257	0.0	477.2371452094618	907.4809315495002	0.0	469.9848648445534	1181.5403507847702	0.0	478.40932811232955	1467.0267453658328	0.0	492.34076890340157	1585.7848634281693	0.0	442.79044140943023	1575.9896711985987	0.0	490.2839400090908	1503.4030876080542	0.0	631.1884255968115	910.3483479834705	0.0	618.413435329717	1161.1408344805268	0.0	583.4405834426606	1419.6601496977503	0.0	577.2646677516918	1533.3461871574182	0.0	614.36435476573	1527.4538910625604	0.0	569.469051061346	1450.8222638437012	0.0	583.2428234387004	471.75557813260826	0.0	590.4167294243288	305.71115305894017	0.0	584.3770331411432	445.8049090201826	0.0	445.3772417088196	518.9123479479254	0.0	386.0527499719498	690.72796901474	0.0	332.6501075606517	840.8108127789334	0.0	721.206058830774	524.7987499510673	0.0	769.5080951810974	723.435307874142	0.0	782.9038276469779	765.0164416741217	0.0
393	13.129372197309417	555.4981506671502	890.7036134902152	0.0	477.09244833586547	912.1448029334633	0.0	473.25548495800535	1187.7792323326205	0.0	479.4529305067194	1480.6944662979547	0.0	495.8258520976041	1592.0543778236731	0.0	444.4435359529381	1585.0818606947844	0.0	489.7351645227003	1520.421940230595	0.0	630.8858257511794	913.4930089301942	0.0	618.0853322940972	1166.765637861749	0.0	582.164520470967	1416.450674564873	0.0	577.9449204565121	1533.5326686745086	0.0	614.2761065204409	1524.695642958077	0.0	566.4193936118198	1447.6100121510935	0.0	582.584804429062	471.16553748615837	0.0	588.6248924654338	306.83673520743645	0.0	584.0919098135042	444.33478460776183	0.0	444.16395192411136	519.524055632715	0.0	384.00796051929285	690.117846408383	0.0	331.95172875124797	839.5771030882959	0.0	720.5464717589928	523.9950169008051	0.0	771.7546525720012	722.3818106220659	0.0	784.5779159299935	771.7072145770155	0.0
394	13.162780269058295	555.4142315238504	894.2451898177162	0.0	476.9657349943224	917.2749378223929	0.0	474.6883127974531	1194.2564742926525	0.0	482.094431902894	1487.7573484032575	0.0	497.51574971910395	1595.0667662608528	0.0	446.1035460082498	1589.1749334847066	0.0	490.00221887955223	1529.5516873406684	0.0	630.0890290031468	917.4757766223772	0.0	616.3372921276297	1173.3495603085596	0.0	581.0312906932345	1412.8537628347697	0.0	579.3525711709709	1533.4243183439337	0.0	615.4712881435289	1518.4307035634308	0.0	564.0032330340528	1441.4968989042704	0.0	581.8211883114052	471.0489740367631	0.0	587.0998490871702	306.7659761197349	0.0	584.7374153550419	442.48874859453235	0.0	441.76837409455334	519.9929901547006	0.0	381.97010739603286	688.9865156305551	0.0	330.4841774774277	839.3492937574915	0.0	719.8855267591082	524.0871357320035	0.0	771.5783962131642	721.171182190758	0.0	784.8815424271766	798.071774606601	0.0
395	13.196188340807174	554.3592886147658	896.6211441798705	0.0	476.05823202579785	920.3357796314959	0.0	474.68903686893003	1197.3088486418023	0.0	483.7736508120591	1492.2533876475782	0.0	498.0707178459161	1602.5558638284886	0.0	446.9308788390177	1595.9259761312433	0.0	490.1076098202632	1533.2170856389048	0.0	628.9877571475502	919.8377532002082	0.0	613.2903086623755	1178.3181459508125	0.0	580.4263911848684	1411.3177302250028	0.0	581.3937367428043	1533.2958560313098	0.0	618.4172758161226	1513.9710046688913	0.0	562.4272616020279	1435.238882976884	0.0	580.4515278669318	470.8317853219951	0.0	585.7828123543378	303.3169566394404	0.0	584.6847004743154	438.9680515049861	0.0	438.1320889160366	520.4653214510048	0.0	380.9084455604635	687.6422629083696	0.0	328.51602019851146	839.4147367763882	0.0	718.9791933376956	524.0969667274677	0.0	768.9530370759396	721.1071247528389	0.0	785.2219946747701	830.3707272930224	0.0
396	13.229596412556052	552.7827168406617	896.7488996702665	0.0	474.52214354070793	921.1410252254238	0.0	474.03923939123143	1199.0517764330857	0.0	483.2434704678738	1496.8304459097294	0.0	497.5182725231676	1613.1587702217168	0.0	446.40935258567026	1605.0094130513528	0.0	489.85564546749674	1535.0904794911432	0.0	627.7978265510285	919.9264280863426	0.0	610.3622711413244	1180.7197691340566	0.0	580.8474168157877	1411.9681718686572	0.0	582.9205199345689	1533.3251111823706	0.0	621.8197224860675	1513.5456501268632	0.0	561.9925799810762	1431.5994599767298	0.0	577.3109475878003	469.59609106092086	0.0	584.0396339638556	296.1635536243557	0.0	582.7905094765541	429.83812462979563	0.0	433.14166971788836	520.8110283535464	0.0	379.8327158369972	687.1852629016213	0.0	326.2940277572481	839.1734637134398	0.0	716.6842703301174	522.8384076625501	0.0	764.6136584869593	720.3372129793842	0.0	784.8622190446591	838.7290857084122	0.0
397	13.263004484304933	551.3780328588056	895.7966932525336	0.0	472.3496582673718	920.769687141574	0.0	473.2350025934667	1201.729766410658	0.0	482.0041794329663	1500.8111880624026	0.0	496.194579166427	1621.3930328402637	0.0	445.40703434730455	1611.6533650305282	0.0	489.36411501816383	1537.0099216917679	0.0	626.3910044669253	919.2429969345363	0.0	608.7029886196075	1181.8286792098331	0.0	581.8347629359965	1413.4817254431482	0.0	583.2662896634803	1533.6925527428632	0.0	624.0948977997905	1515.4713423038636	0.0	562.1670088671389	1431.4938312442453	0.0	572.4287716056667	467.1907323303238	0.0	580.7741179167506	286.581770672501	0.0	578.1914024370744	414.63111541328146	0.0	427.8621378384059	520.2479528711418	0.0	377.79522373220453	687.3797268616988	0.0	323.7967730568516	838.5923622804971	0.0	712.9250777088644	520.151478709229	0.0	759.8221471866411	718.0322439303463	0.0	783.2861388611511	828.5495510283068	0.0
398	13.296412556053811	550.2501994372232	895.3397050052275	0.0	469.6471370843715	920.1678213707459	0.0	472.7604836401417	1203.114769688054	0.0	481.9596321405862	1502.4853729037095	0.0	495.627593046318	1625.8766542761277	0.0	445.59396165627305	1614.8277224971398	0.0	489.0485736791466	1537.9089640995687	0.0	624.9478848379135	919.1696992704992	0.0	607.9046902076461	1182.09986160093	0.0	582.6049842270747	1415.1862415135215	0.0	583.0187735680944	1535.1610064159606	0.0	624.6393829041085	1517.2059288339308	0.0	562.2205828690848	1433.9423401392485	0.0	567.7658232966502	463.6228430373347	0.0	576.1812265478973	276.5863308928396	0.0	571.0839455491661	399.20176047314015	0.0	424.0965445592439	517.8678729331974	0.0	375.6626342242635	686.2843346588603	0.0	320.69470277495384	837.8196936710143	0.0	708.5682741577663	516.0983582484338	0.0	756.1283994217509	715.1553151756741	0.0	780.0887085629162	817.191664723512	0.0
